<svg xmlns="http://www.w3.org/2000/svg" xmlns:xlink="http://www.w3.org/1999/xlink" id="Camada_1" x="0px" y="0px" width="960px" height="560px" viewBox="0 0 960 560" xml:space="preserve"><g>	<line fill="none" stroke="#FBBA00" stroke-width="6" stroke-miterlimit="10" x1="23" y1="521" x2="95" y2="412"></line>	<line fill="none" stroke="#FBBA00" stroke-width="6" stroke-miterlimit="10" x1="95" y1="412" x2="155" y2="486"></line>	<line fill="none" stroke="#FBBA00" stroke-width="6" stroke-miterlimit="10" x1="155" y1="486" x2="239" y2="392"></line>	<line fill="none" stroke="#FBBA00" stroke-width="6" stroke-miterlimit="10" x1="239" y1="392" x2="294" y2="461"></line>	<line fill="none" stroke="#FBBA00" stroke-width="6" stroke-miterlimit="10" x1="294" y1="461" x2="394" y2="372"></line>	<line fill="none" stroke="#FBBA00" stroke-width="6" stroke-miterlimit="10" x1="394" y1="372" x2="627" y2="521"></line>	<line fill="none" stroke="#FBBA00" stroke-width="6" stroke-miterlimit="10" x1="623" y1="523" x2="797" y2="259"></line></g><g>			<linearGradient id="SVGID_1_" gradientUnits="userSpaceOnUse" x1="663.998" y1="376.6611" x2="751.8979" y2="293.8652" gradientTransform="matrix(0.9747 -0.2233 0.2233 0.9747 -25.8623 178.1968)">		<stop offset="0" style="stop-color:#FF8533"></stop>		<stop offset="0.9964" style="stop-color:#FFD052"></stop>	</linearGradient>	<path fill="url(#SVGID_1_)" d="M772.846,293.104c0,0-54.809-7.371-54.359,44.217l10.176-4.569c0,0-9.201,17.234-7.388,45.499  c25.89-11.486,36.901-27.623,36.901-27.623l0.665,11.135C804.767,338.264,772.846,293.104,772.846,293.104z"></path>			<linearGradient id="SVGID_2_" gradientUnits="userSpaceOnUse" x1="704.1719" y1="339.1494" x2="758.3528" y2="285.8424" gradientTransform="matrix(0.9747 -0.2233 0.2233 0.9747 -25.8623 178.1968)">		<stop offset="0.0036" style="stop-color:#FFD052"></stop>		<stop offset="1" style="stop-color:#FFE9AE"></stop>	</linearGradient>	<path fill="url(#SVGID_2_)" d="M772.846,293.104c0,0-34.188-4.598-33.908,27.581l6.348-2.851c0,0-5.739,10.75-4.608,28.381  c16.151-7.164,23.017-17.23,23.017-17.23l0.415,6.945C792.756,321.273,772.846,293.104,772.846,293.104z"></path>			<linearGradient id="SVGID_3_" gradientUnits="userSpaceOnUse" x1="805.3496" y1="312.3115" x2="754.6285" y2="229.402" gradientTransform="matrix(0.9747 -0.2233 0.2233 0.9747 -25.8623 178.1968)">		<stop offset="0" style="stop-color:#767B7F"></stop>		<stop offset="1" style="stop-color:#A3A3A3"></stop>	</linearGradient>	<polygon fill="url(#SVGID_3_)" points="807.945,282.424 765.696,256.24 772.999,244.516 815.247,270.699  "></polygon>			<linearGradient id="SVGID_4_" gradientUnits="userSpaceOnUse" x1="729.6885" y1="223.0269" x2="810.9667" y2="315.9164" gradientTransform="matrix(0.9747 -0.2233 0.2233 0.9747 -25.8623 178.1968)">		<stop offset="0.0036" style="stop-color:#F02E54"></stop>		<stop offset="1" style="stop-color:#8F1931"></stop>	</linearGradient>	<path fill="url(#SVGID_4_)" d="M779.284,195.473c0,0-32.527,4.966-42.629,21.17c-10.898,17.488-18.634,37.602-22.397,64.682  c-2.009,14.448,8.189-2.348,15.188-12.467c12.253-17.718,19.958-19.182,35.487-19.182  C764.933,249.676,769.157,231.574,779.284,195.473z"></path>	<path opacity="0.33" fill="#FFFFFF" d="M779.284,195.473c0,0-32.527,4.966-42.629,21.17  c-10.898,17.488-18.634,37.602-22.397,64.682c-0.377,2.708-0.324,4.32,0.056,5.082c0,0,6.385-34.674,17.767-53.53  C743.458,214.018,752.079,205.966,779.284,195.473"></path>			<linearGradient id="SVGID_5_" gradientUnits="userSpaceOnUse" x1="815.7266" y1="338.3213" x2="789.6046" y2="206.6873" gradientTransform="matrix(0.9747 -0.2233 0.2233 0.9747 -25.8623 178.1968)">		<stop offset="0.0036" style="stop-color:#F02E54"></stop>		<stop offset="1" style="stop-color:#8F1931"></stop>	</linearGradient>	<path fill="url(#SVGID_5_)" d="M856.779,243.501c0,0,9.944,31.292-0.146,47.501c-10.892,17.492-25.544,33.321-48.214,48.68  c-12.098,8.197-1.52-8.364,4.477-19.104c10.497-18.803,8.399-26.343,1.521-40.23C814.417,280.347,828.816,268.549,856.779,243.501z  "></path>			<linearGradient id="SVGID_6_" gradientUnits="userSpaceOnUse" x1="839.5605" y1="142.1357" x2="899.692" y2="284.1548" gradientTransform="matrix(0.9747 -0.2233 0.2233 0.9747 -25.8623 178.1968)">		<stop offset="0.0036" style="stop-color:#EEF4FA"></stop>		<stop offset="1" style="stop-color:#CDDEED"></stop>	</linearGradient>	<path fill="url(#SVGID_6_)" d="M929.938,100.081c-2.581-35.688-11.217-42.245-11.217-42.245s-9.716-4.818-42.938,8.683  c-35.087,14.259-53.082,41.965-65.266,61.149c-15.761,24.821-38.744,78.896-45.586,122.008l24.82,15.206l24.664,15.465  c35.719-25.216,74.14-69.721,89.47-94.813C915.735,166.143,932.664,137.776,929.938,100.081z"></path>			<linearGradient id="SVGID_7_" gradientUnits="userSpaceOnUse" x1="847.7715" y1="157.8818" x2="898.7853" y2="278.3667" gradientTransform="matrix(0.9747 -0.2233 0.2233 0.9747 -25.8623 178.1968)">		<stop offset="0.0036" style="stop-color:#EEF4FA"></stop>		<stop offset="1" style="stop-color:#CDDEED"></stop>	</linearGradient>	<path fill="url(#SVGID_7_)" d="M771.228,253.533l18.525,11.349l24.664,15.465c35.719-25.216,74.14-69.721,89.47-94.813  c11.849-19.391,28.777-47.758,26.052-85.453c-2.581-35.688-11.217-42.245-11.217-42.245"></path>			<line opacity="0.09" fill="none" stroke="#000000" stroke-width="1.8919" stroke-miterlimit="10" x1="768.445" y1="251.827" x2="810.791" y2="278.072"></line>			<linearGradient id="SVGID_8_" gradientUnits="userSpaceOnUse" x1="751.8379" y1="215.9966" x2="806.1104" y2="282.9583" gradientTransform="matrix(0.9747 -0.2233 0.2233 0.9747 -25.8623 178.1968)">		<stop offset="0" style="stop-color:#C7C7C7"></stop>		<stop offset="1" style="stop-color:#A3A3A3"></stop>	</linearGradient>	<path fill="url(#SVGID_8_)" d="M764.933,249.676l24.82,15.206l24.664,15.465c7.219-5.098,14.547-10.99,21.774-17.343l-65.316-40.48  C768.367,231.8,766.316,240.962,764.933,249.676z"></path>			<linearGradient id="SVGID_9_" gradientUnits="userSpaceOnUse" x1="791.3164" y1="248.7979" x2="802.4228" y2="283.0425" gradientTransform="matrix(0.9747 -0.2233 0.2233 0.9747 -25.8623 178.1968)">		<stop offset="0" style="stop-color:#1D262D"></stop>		<stop offset="1" style="stop-color:#1D262D;stop-opacity:0"></stop>	</linearGradient>	<polygon fill="url(#SVGID_9_)" points="816.26,225.307 814.417,280.347 809.914,278.667 807.945,282.424 791.54,272.256  "></polygon>			<line fill="none" stroke="#000000" stroke-width="1.8919" stroke-miterlimit="10" x1="848" y1="82.807" x2="927.604" y2="132.146"></line>			<linearGradient id="SVGID_10_" gradientUnits="userSpaceOnUse" x1="911.3809" y1="104.9727" x2="1023.6008" y2="194.9765" gradientTransform="matrix(0.9747 -0.2233 0.2233 0.9747 -25.8623 178.1968)">		<stop offset="0.0036" style="stop-color:#F02E54"></stop>		<stop offset="1" style="stop-color:#8F1931"></stop>	</linearGradient>	<path fill="url(#SVGID_10_)" d="M918.722,57.836c0,0-9.716-4.818-42.938,8.683C865.021,70.893,855.871,76.535,848,82.807  l79.604,49.339c2.151-9.819,3.17-20.501,2.334-32.065C927.357,64.393,918.722,57.836,918.722,57.836z"></path>	<g>		<defs>			<path id="SVGID_11_" d="M929.938,100.081c-2.581-35.688-11.217-42.245-11.217-42.245s-9.716-4.818-42.938,8.683    c-35.087,14.259-53.082,41.965-65.266,61.149c-15.761,24.821-38.744,78.896-45.586,122.008l24.82,15.206l24.664,15.465    c35.719-25.216,74.14-69.721,89.47-94.813C915.735,166.143,932.664,137.776,929.938,100.081z"></path>		</defs>		<clipPath id="SVGID_12_">			<use xlink:href="#SVGID_11_"></use>		</clipPath>					<linearGradient id="SVGID_13_" gradientUnits="userSpaceOnUse" x1="1054.6826" y1="300.0479" x2="846.9208" y2="84.6229" gradientTransform="matrix(0.9747 -0.2233 0.2233 0.9747 -25.8623 178.1968)">			<stop offset="0" style="stop-color:#8F1931"></stop>			<stop offset="0.9964" style="stop-color:#F02E54"></stop>		</linearGradient>		<polygon clip-path="url(#SVGID_12_)" fill="url(#SVGID_13_)" points="931.051,145.935 835.385,87.307 837.91,83.186    933.573,141.814   "></polygon>					<linearGradient id="SVGID_14_" gradientUnits="userSpaceOnUse" x1="1048.3613" y1="306.1318" x2="840.6069" y2="90.7147" gradientTransform="matrix(0.9747 -0.2233 0.2233 0.9747 -25.8623 178.1968)">			<stop offset="0" style="stop-color:#8F1931"></stop>			<stop offset="0.9964" style="stop-color:#F02E54"></stop>		</linearGradient>		<polygon clip-path="url(#SVGID_12_)" fill="url(#SVGID_14_)" points="927.679,153.251 832.015,94.623 833.7,91.876    929.362,150.505   "></polygon>	</g>			<line opacity="0.09" fill="none" stroke="#000000" stroke-width="1.8919" stroke-miterlimit="10" x1="770.868" y1="222.521" x2="836.191" y2="263.004"></line>			<linearGradient id="SVGID_15_" gradientUnits="userSpaceOnUse" x1="750.3857" y1="250.0078" x2="814.0104" y2="341.0152" gradientTransform="matrix(0.9747 -0.2233 0.2233 0.9747 -25.8623 178.1968)">		<stop offset="0.0036" style="stop-color:#F02E54"></stop>		<stop offset="1" style="stop-color:#8F1931"></stop>	</linearGradient>	<path fill="url(#SVGID_15_)" d="M815.55,223.474c0,0-4.027-3.922-26.137,31.571c-22.11,35.494-40.268,68.801-37.468,70.537  c2.801,1.734,24.695-29.259,46.805-64.751C820.857,225.337,815.55,223.474,815.55,223.474z"></path>	<path opacity="0.33" fill="#FFFFFF" d="M815.55,223.474c0,0-4.027-3.922-26.137,31.571c-22.11,35.494-40.268,68.801-37.468,70.537  c0,0,5.389-13.383,21.689-41.289C789.937,256.391,808.913,225.627,815.55,223.474z"></path>	<g>					<linearGradient id="SVGID_16_" gradientUnits="userSpaceOnUse" x1="860.8008" y1="203.3159" x2="883.7753" y2="251.4188" gradientTransform="matrix(0.9747 -0.2233 0.2233 0.9747 -25.8623 178.1968)">			<stop offset="0" style="stop-color:#1D262D"></stop>			<stop offset="0.6767" style="stop-color:#1D262D;stop-opacity:0.3233"></stop>			<stop offset="1" style="stop-color:#1D262D;stop-opacity:0"></stop>		</linearGradient>		<circle fill="url(#SVGID_16_)" cx="848.45" cy="171.338" r="36.683"></circle>		<circle fill="#D4D4D4" cx="847.933" cy="170.328" r="36.478"></circle>					<linearGradient id="SVGID_17_" gradientUnits="userSpaceOnUse" x1="837.2236" y1="148.8345" x2="882.3514" y2="254.4064" gradientTransform="matrix(0.9747 -0.2233 0.2233 0.9747 -25.8623 178.1968)">			<stop offset="0" style="stop-color:#C7C7C7"></stop>			<stop offset="1" style="stop-color:#A3A3A3"></stop>		</linearGradient>		<circle fill="url(#SVGID_17_)" cx="848.47" cy="170.663" r="36.031"></circle>		<path fill="#76C9F0" d="M832.871,194.29c-13.187-8.195-17.248-25.592-9.054-38.78c8.194-13.187,25.592-17.248,38.778-9.055   c13.186,8.195,17.249,25.592,9.055,38.779C863.457,198.421,846.058,202.483,832.871,194.29z"></path>					<linearGradient id="SVGID_18_" gradientUnits="userSpaceOnUse" x1="831.8496" y1="154.959" x2="885.1838" y2="236.4648" gradientTransform="matrix(0.9747 -0.2233 0.2233 0.9747 -25.8623 178.1968)">			<stop offset="0" style="stop-color:#ADE5FF"></stop>			<stop offset="1" style="stop-color:#76C9F0"></stop>		</linearGradient>		<path fill="url(#SVGID_18_)" d="M833.799,193.807c-12.652-7.862-16.548-24.552-8.687-37.204   c7.861-12.652,24.552-16.549,37.203-8.688c12.651,7.862,16.548,24.552,8.688,37.206   C863.141,197.771,846.45,201.668,833.799,193.807z"></path>		<g>			<defs>				<path id="SVGID_19_" d="M833.799,193.807c-12.652-7.862-16.548-24.552-8.687-37.204c7.861-12.652,24.552-16.549,37.203-8.688     c12.651,7.862,16.548,24.552,8.688,37.206C863.141,197.771,846.45,201.668,833.799,193.807z"></path>			</defs>			<clipPath id="SVGID_20_">				<use xlink:href="#SVGID_19_"></use>			</clipPath>							<linearGradient id="SVGID_21_" gradientUnits="userSpaceOnUse" x1="879.541" y1="165.5654" x2="822.528" y2="203.3173" gradientTransform="matrix(0.9747 -0.2233 0.2233 0.9747 -25.8623 178.1968)">				<stop offset="0" style="stop-color:#F9FBFC"></stop>				<stop offset="1" style="stop-color:#F9FBFC;stop-opacity:0"></stop>			</linearGradient>			<polygon clip-path="url(#SVGID_20_)" fill="url(#SVGID_21_)" points="867.551,144.474 815.085,183.628 821.441,192.142     873.905,152.99    "></polygon>							<linearGradient id="SVGID_22_" gradientUnits="userSpaceOnUse" x1="886.8486" y1="176.5981" x2="829.8334" y2="214.3514" gradientTransform="matrix(0.9747 -0.2233 0.2233 0.9747 -25.8623 178.1968)">				<stop offset="0" style="stop-color:#F9FBFC"></stop>				<stop offset="1" style="stop-color:#F9FBFC;stop-opacity:0"></stop>			</linearGradient>			<polygon clip-path="url(#SVGID_20_)" fill="url(#SVGID_22_)" points="876.731,157.796 824.266,196.949 827.464,201.236     879.929,162.082    "></polygon>		</g>		<g>			<g>				<circle fill="#A3A3A3" cx="819.44" cy="155.714" r="1.538"></circle>				<circle fill="#A3A3A3" cx="816.108" cy="165.12" r="1.538"></circle>				<circle fill="#A3A3A3" cx="824.049" cy="148.688" r="1.539"></circle>				<circle fill="#A3A3A3" cx="819.447" cy="184.418" r="1.538"></circle>				<circle fill="#A3A3A3" cx="824.758" cy="192.865" r="1.538"></circle>				<circle fill="#A3A3A3" cx="816.635" cy="174.946" r="1.539"></circle>				<path fill="#A3A3A3" d="M841.021,200.935c-0.822,0.215-1.312,1.056-1.097,1.878c0.217,0.822,1.059,1.314,1.881,1.097     c0.819-0.217,1.312-1.059,1.096-1.879C842.684,201.208,841.843,200.717,841.021,200.935z"></path>				<circle fill="#A3A3A3" cx="851.34" cy="203.428" r="1.539"></circle>				<circle fill="#A3A3A3" cx="832.214" cy="198.814" r="1.539"></circle>				<circle fill="#A3A3A3" cx="869.26" cy="195.953" r="1.539"></circle>				<circle fill="#A3A3A3" cx="875.757" cy="188.969" r="1.538"></circle>				<circle fill="#A3A3A3" cx="860.76" cy="200.587" r="1.539"></circle>				<circle fill="#A3A3A3" cx="880.263" cy="170.829" r="1.539"></circle>				<circle fill="#A3A3A3" cx="879.232" cy="161.689" r="1.539"></circle>				<circle fill="#A3A3A3" cx="879.252" cy="180.435" r="1.538"></circle>				<circle fill="#A3A3A3" cx="869.228" cy="145.632" r="1.539"></circle>				<circle fill="#A3A3A3" cx="860.867" cy="140.422" r="1.538"></circle>				<circle fill="#A3A3A3" cx="875.125" cy="153.081" r="1.539"></circle>				<circle fill="#A3A3A3" cx="840.721" cy="139.221" r="1.538"></circle>				<circle fill="#A3A3A3" cx="831.792" cy="142.981" r="1.538"></circle>				<circle fill="#A3A3A3" cx="850.741" cy="138.369" r="1.539"></circle>			</g>			<g>				<circle fill="#D4D4D4" cx="819.052" cy="155.471" r="1.538"></circle>				<circle fill="#D4D4D4" cx="815.72" cy="164.877" r="1.538"></circle>				<circle fill="#D4D4D4" cx="823.662" cy="148.447" r="1.539"></circle>				<circle fill="#D4D4D4" cx="819.06" cy="184.175" r="1.538"></circle>				<circle fill="#D4D4D4" cx="824.37" cy="192.622" r="1.539"></circle>				<circle fill="#D4D4D4" cx="816.248" cy="174.702" r="1.538"></circle>				<circle fill="#D4D4D4" cx="841.024" cy="202.178" r="1.538"></circle>				<circle fill="#D4D4D4" cx="850.952" cy="203.186" r="1.538"></circle>				<circle fill="#D4D4D4" cx="831.827" cy="198.57" r="1.539"></circle>				<circle fill="#D4D4D4" cx="868.873" cy="195.71" r="1.539"></circle>				<circle fill="#D4D4D4" cx="875.369" cy="188.727" r="1.539"></circle>				<circle fill="#D4D4D4" cx="860.372" cy="200.344" r="1.538"></circle>				<circle fill="#D4D4D4" cx="879.877" cy="170.585" r="1.538"></circle>				<circle fill="#D4D4D4" cx="878.845" cy="161.446" r="1.538"></circle>				<circle fill="#D4D4D4" cx="878.865" cy="180.192" r="1.539"></circle>				<circle fill="#D4D4D4" cx="868.839" cy="145.389" r="1.539"></circle>				<circle fill="#D4D4D4" cx="860.48" cy="140.18" r="1.539"></circle>				<circle fill="#D4D4D4" cx="874.737" cy="152.837" r="1.539"></circle>				<circle fill="#D4D4D4" cx="840.333" cy="138.978" r="1.538"></circle>				<circle fill="#D4D4D4" cx="831.406" cy="142.737" r="1.538"></circle>				<circle fill="#D4D4D4" cx="850.353" cy="138.126" r="1.539"></circle>			</g>			<g>									<rect x="817.616" y="155.317" transform="matrix(0.5314 -0.8471 0.8471 0.5314 252.0912 766.6772)" fill="#B9B9B9" width="2.872" height="0.308"></rect>									<rect x="814.284" y="164.724" transform="matrix(0.5312 -0.8473 0.8473 0.5312 242.7354 768.4274)" fill="#B9B9B9" width="2.872" height="0.308"></rect>									<rect x="822.227" y="148.292" transform="matrix(0.5312 -0.8473 0.8473 0.5312 260.3809 767.453)" fill="#B9B9B9" width="2.872" height="0.308"></rect>									<rect x="817.624" y="184.02" transform="matrix(0.5315 -0.8471 0.8471 0.5315 227.7257 780.0799)" fill="#B9B9B9" width="2.872" height="0.308"></rect>									<rect x="822.934" y="192.468" transform="matrix(0.5319 -0.8468 0.8468 0.5319 222.7787 788.254)" fill="#B9B9B9" width="2.872" height="0.309"></rect>									<rect x="814.811" y="174.548" transform="matrix(0.5314 -0.8471 0.8471 0.5314 234.4859 773.3127)" fill="#B9B9B9" width="2.872" height="0.309"></rect>									<rect x="839.589" y="202.025" transform="matrix(0.5313 -0.8472 0.8472 0.5313 222.8854 807.2422)" fill="#B9B9B9" width="2.871" height="0.306"></rect>									<rect x="849.516" y="203.032" transform="matrix(0.5312 -0.8473 0.8473 0.5312 226.7966 816.2374)" fill="#B9B9B9" width="2.872" height="0.306"></rect>									<rect x="830.391" y="198.416" transform="matrix(0.5312 -0.8473 0.8473 0.5312 221.7398 797.8698)" fill="#B9B9B9" width="2.872" height="0.308"></rect>									<rect x="867.436" y="195.556" transform="matrix(0.5314 -0.8471 0.8471 0.5314 241.3497 827.7354)" fill="#B9B9B9" width="2.872" height="0.307"></rect>									<rect x="873.934" y="188.572" transform="matrix(0.5314 -0.8471 0.8471 0.5314 250.3204 829.9775)" fill="#B9B9B9" width="2.87" height="0.308"></rect>									<rect x="858.938" y="200.19" transform="matrix(0.5315 -0.8471 0.8471 0.5315 233.3844 822.6511)" fill="#B9B9B9" width="2.872" height="0.309"></rect>									<rect x="878.44" y="170.432" transform="matrix(0.5314 -0.8471 0.8471 0.5314 267.7887 825.2842)" fill="#B9B9B9" width="2.872" height="0.307"></rect>									<rect x="877.409" y="161.293" transform="matrix(0.5313 -0.8472 0.8472 0.5313 275.1765 820.2471)" fill="#B9B9B9" width="2.871" height="0.308"></rect>									<rect x="877.429" y="180.038" transform="matrix(0.5312 -0.8473 0.8473 0.5312 259.3633 829.1073)" fill="#B9B9B9" width="2.872" height="0.308"></rect>									<rect x="867.404" y="145.237" transform="matrix(0.5313 -0.8472 0.8472 0.5313 284.0906 804.2446)" fill="#B9B9B9" width="2.871" height="0.307"></rect>									<rect x="859.043" y="140.025" transform="matrix(0.5314 -0.8471 0.8471 0.5314 284.4573 794.605)" fill="#B9B9B9" width="2.872" height="0.308"></rect>									<rect x="873.301" y="152.684" transform="matrix(0.5312 -0.8473 0.8473 0.5312 280.6051 812.785)" fill="#B9B9B9" width="2.872" height="0.307"></rect>									<rect x="838.896" y="138.825" transform="matrix(0.531 -0.8474 0.8474 0.531 276.3336 777.2397)" fill="#B9B9B9" width="2.873" height="0.306"></rect>									<rect x="829.969" y="142.583" transform="matrix(0.5313 -0.8472 0.8472 0.5313 268.7903 771.2857)" fill="#B9B9B9" width="2.871" height="0.308"></rect>									<rect x="848.917" y="137.973" transform="matrix(0.5314 -0.8471 0.8471 0.5314 281.4509 785.065)" fill="#B9B9B9" width="2.872" height="0.308"></rect>			</g>		</g>	</g>	<path opacity="0.33" fill="#FFFFFF" d="M918.722,57.836c0,0-9.716-4.818-42.938,8.683c-35.087,14.259-53.082,41.965-65.266,61.149  c-15.761,24.821-38.744,78.896-45.586,122.008l0,0C764.933,249.676,803.013,79.042,918.722,57.836z"></path>	<polygon opacity="0.33" fill="#FFFFFF" points="770.066,252.799 767.255,257.191 765.696,256.24 768.445,251.827  "></polygon>	<g opacity="0.48">		<defs>			<path id="SVGID_23_" opacity="0.48" d="M929.938,100.081c-2.581-35.688-11.217-42.245-11.217-42.245s-9.716-4.818-42.938,8.683    c-35.087,14.259-53.082,41.965-65.266,61.149c-12.574,19.805-29.747,58.229-39.65,94.854c-2.51,9.279-4.552,18.44-5.936,27.154    l24.82,15.206l24.664,15.465c35.719-25.216,74.14-69.721,89.47-94.813C915.735,166.143,932.664,137.776,929.938,100.081z"></path>		</defs>		<clipPath id="SVGID_24_">			<use xlink:href="#SVGID_23_"></use>		</clipPath>					<linearGradient id="SVGID_25_" gradientUnits="userSpaceOnUse" x1="989.7363" y1="264.6343" x2="866.7711" y2="187.8481" gradientTransform="matrix(0.9747 -0.2233 0.2233 0.9747 -25.8623 178.1968)">			<stop offset="0" style="stop-color:#1D262D"></stop>			<stop offset="1" style="stop-color:#1D262D;stop-opacity:0"></stop>		</linearGradient>		<path clip-path="url(#SVGID_24_)" fill="url(#SVGID_25_)" d="M814.417,280.347c0,0,129.308-107.663,104.305-222.511l45.439,8.661   l-88.427,241.71C875.734,308.207,845.821,304.174,814.417,280.347z"></path>	</g>			<linearGradient id="SVGID_26_" gradientUnits="userSpaceOnUse" x1="813.8027" y1="259.9414" x2="826.5286" y2="288.4507" gradientTransform="matrix(0.9747 -0.2233 0.2233 0.9747 -25.8623 178.1968)">		<stop offset="0" style="stop-color:#1D262D"></stop>		<stop offset="1" style="stop-color:#1D262D;stop-opacity:0"></stop>	</linearGradient>	<path fill="url(#SVGID_26_)" d="M814.417,280.347l5.297,9.846c0,0,24.957-20.314,37.065-46.691l0,0  C856.779,243.501,829.917,269.313,814.417,280.347z"></path>	<path opacity="0.33" fill="#FFFFFF" d="M811.335,325.442c6.708-10.457,8.078-19.385,8.284-21.077  c-0.054,0.359-0.198,1.07-0.587,2.281c-1.117,3.985-3.096,8.483-6.137,13.931c-3.875,6.942-9.657,16.305-10,19.854  c-0.046,0.749,0.159,1.174,0.54,1.389c0.005,0.001,0.005,0.002,0.009,0.003C803.445,341.801,803.895,337.039,811.335,325.442z"></path></g></svg>